M48
; DRILL file {KiCad (6.0.9)} date Tue Nov 22 09:14:05 2022
; FORMAT={-:-/ absolute / metric / decimal}
; #@! TF.CreationDate,2022-11-22T09:14:05+09:00
; #@! TF.GenerationSoftware,Kicad,Pcbnew,(6.0.9)
; #@! TF.FileFunction,MixedPlating,1,2
FMAT,2
METRIC
; #@! TA.AperFunction,Plated,PTH,ViaDrill
T1C0.300
; #@! TA.AperFunction,Plated,PTH,ComponentDrill
T2C0.800
; #@! TA.AperFunction,Plated,PTH,ComponentDrill
T3C1.100
; #@! TA.AperFunction,Plated,PTH,ComponentDrill
T4C1.200
; #@! TA.AperFunction,Plated,PTH,ComponentDrill
T5C2.500
; #@! TA.AperFunction,NonPlated,NPTH,ComponentDrill
T6C3.200
; #@! TA.AperFunction,NonPlated,NPTH,ComponentDrill
T7C3.500
%
G90
G05
T1
X14.478Y48.26
X44.958Y33.528
X44.958Y16.256
X48.768Y48.26
X48.895Y36.83
X49.53Y38.1
X80.899Y54.737
X81.026Y33.528
T2
X9.906Y15.748
X9.906Y13.208
X9.906Y10.668
X17.566Y35.56
X18.796Y46.315
X18.796Y43.815
X20.066Y35.56
X22.987Y48.133
X22.987Y40.513
X24.083Y35.56
X25.527Y48.133
X25.527Y40.513
X28.067Y48.133
X28.067Y40.513
X29.083Y35.56
X30.607Y48.133
X30.607Y40.513
X30.734Y13.716
X30.734Y11.716
X33.147Y48.133
X33.147Y40.513
X33.147Y35.56
X35.647Y35.56
X35.687Y48.133
X35.687Y40.513
X37.973Y29.464
X37.973Y21.844
X38.227Y48.133
X38.227Y40.513
X40.767Y48.133
X40.767Y40.513
X40.767Y29.464
X40.767Y21.844
X43.307Y48.133
X43.307Y40.513
X43.561Y29.464
X43.561Y21.844
X45.847Y48.133
X45.847Y40.513
X46.355Y29.464
X46.355Y21.844
X49.149Y29.464
X49.149Y21.844
X52.197Y29.464
X52.197Y21.844
X53.848Y48.26
X53.848Y40.64
X55.245Y29.464
X55.245Y21.844
X57.15Y45.339
X57.15Y42.839
X60.198Y13.843
X60.198Y11.843
X62.611Y48.26
X62.611Y40.64
X62.611Y37.084
X62.611Y29.464
X62.865Y54.61
X65.151Y48.26
X65.151Y40.64
X65.151Y37.084
X65.151Y29.464
X67.564Y51.562
X67.691Y48.26
X67.691Y40.64
X67.691Y37.084
X67.691Y29.464
X67.731Y44.323
X70.231Y48.26
X70.231Y44.323
X70.231Y40.64
X70.231Y37.084
X70.231Y29.464
X70.485Y54.61
X72.771Y48.26
X72.771Y40.64
X72.771Y37.084
X72.771Y29.464
X75.184Y51.562
X75.311Y48.26
X75.311Y40.64
X75.311Y37.084
X75.311Y29.464
X77.851Y48.26
X77.851Y40.64
X82.296Y48.26
X82.296Y40.64
X85.344Y48.26
X85.344Y40.64
T3
X18.415Y29.464
X20.955Y29.464
X23.495Y29.464
T4
X17.907Y54.864
X20.447Y54.864
X22.987Y54.864
X25.527Y54.864
X28.067Y54.864
X30.607Y54.864
X33.147Y54.864
X35.687Y54.864
X37.973Y8.255
X38.227Y54.864
X40.767Y54.864
X41.783Y8.255
X43.307Y54.864
X45.847Y54.864
X48.133Y8.255
X48.387Y54.864
X50.927Y54.864
X51.943Y8.255
X53.467Y54.864
X56.007Y54.864
T5
X12.408Y54.864
X12.408Y23.863
X87.406Y23.863
X87.407Y54.864
T6
X3.0Y57.0
X3.0Y3.0
X97.0Y57.0
X97.0Y3.0
T7
X20.955Y12.804
T0
M30
