G04 #@! TF.GenerationSoftware,KiCad,Pcbnew,(6.0.9)*
G04 #@! TF.CreationDate,2022-11-22T09:13:48+09:00*
G04 #@! TF.ProjectId,RailcomDisplay,5261696c-636f-46d4-9469-73706c61792e,rev?*
G04 #@! TF.SameCoordinates,PX6021600PY87cda00*
G04 #@! TF.FileFunction,Legend,Top*
G04 #@! TF.FilePolarity,Positive*
%FSLAX46Y46*%
G04 Gerber Fmt 4.6, Leading zero omitted, Abs format (unit mm)*
G04 Created by KiCad (PCBNEW (6.0.9)) date 2022-11-22 09:13:48*
%MOMM*%
%LPD*%
G01*
G04 APERTURE LIST*
%ADD10C,0.150000*%
%ADD11C,0.500000*%
%ADD12C,0.120000*%
G04 APERTURE END LIST*
D10*
X26162476Y43807120D02*
X26162476Y44807120D01*
X26543428Y44807120D01*
X26638666Y44759500D01*
X26686285Y44711881D01*
X26733904Y44616643D01*
X26733904Y44473786D01*
X26686285Y44378548D01*
X26638666Y44330929D01*
X26543428Y44283310D01*
X26162476Y44283310D01*
X27162476Y43807120D02*
X27162476Y44807120D01*
X28210095Y43902358D02*
X28162476Y43854739D01*
X28019619Y43807120D01*
X27924380Y43807120D01*
X27781523Y43854739D01*
X27686285Y43949977D01*
X27638666Y44045215D01*
X27591047Y44235691D01*
X27591047Y44378548D01*
X27638666Y44569024D01*
X27686285Y44664262D01*
X27781523Y44759500D01*
X27924380Y44807120D01*
X28019619Y44807120D01*
X28162476Y44759500D01*
X28210095Y44711881D01*
X29162476Y43807120D02*
X28591047Y43807120D01*
X28876761Y43807120D02*
X28876761Y44807120D01*
X28781523Y44664262D01*
X28686285Y44569024D01*
X28591047Y44521405D01*
X30019619Y44807120D02*
X29829142Y44807120D01*
X29733904Y44759500D01*
X29686285Y44711881D01*
X29591047Y44569024D01*
X29543428Y44378548D01*
X29543428Y43997596D01*
X29591047Y43902358D01*
X29638666Y43854739D01*
X29733904Y43807120D01*
X29924380Y43807120D01*
X30019619Y43854739D01*
X30067238Y43902358D01*
X30114857Y43997596D01*
X30114857Y44235691D01*
X30067238Y44330929D01*
X30019619Y44378548D01*
X29924380Y44426167D01*
X29733904Y44426167D01*
X29638666Y44378548D01*
X29591047Y44330929D01*
X29543428Y44235691D01*
X30876761Y44330929D02*
X30543428Y44330929D01*
X30543428Y43807120D02*
X30543428Y44807120D01*
X31019619Y44807120D01*
X31829142Y44807120D02*
X31638666Y44807120D01*
X31543428Y44759500D01*
X31495809Y44711881D01*
X31400571Y44569024D01*
X31352952Y44378548D01*
X31352952Y43997596D01*
X31400571Y43902358D01*
X31448190Y43854739D01*
X31543428Y43807120D01*
X31733904Y43807120D01*
X31829142Y43854739D01*
X31876761Y43902358D01*
X31924380Y43997596D01*
X31924380Y44235691D01*
X31876761Y44330929D01*
X31829142Y44378548D01*
X31733904Y44426167D01*
X31543428Y44426167D01*
X31448190Y44378548D01*
X31400571Y44330929D01*
X31352952Y44235691D01*
X32400571Y43807120D02*
X32591047Y43807120D01*
X32686285Y43854739D01*
X32733904Y43902358D01*
X32829142Y44045215D01*
X32876761Y44235691D01*
X32876761Y44616643D01*
X32829142Y44711881D01*
X32781523Y44759500D01*
X32686285Y44807120D01*
X32495809Y44807120D01*
X32400571Y44759500D01*
X32352952Y44711881D01*
X32305333Y44616643D01*
X32305333Y44378548D01*
X32352952Y44283310D01*
X32400571Y44235691D01*
X32495809Y44188072D01*
X32686285Y44188072D01*
X32781523Y44235691D01*
X32829142Y44283310D01*
X32876761Y44378548D01*
X33495809Y44807120D02*
X33591047Y44807120D01*
X33686285Y44759500D01*
X33733904Y44711881D01*
X33781523Y44616643D01*
X33829142Y44426167D01*
X33829142Y44188072D01*
X33781523Y43997596D01*
X33733904Y43902358D01*
X33686285Y43854739D01*
X33591047Y43807120D01*
X33495809Y43807120D01*
X33400571Y43854739D01*
X33352952Y43902358D01*
X33305333Y43997596D01*
X33257714Y44188072D01*
X33257714Y44426167D01*
X33305333Y44616643D01*
X33352952Y44711881D01*
X33400571Y44759500D01*
X33495809Y44807120D01*
D11*
X68978190Y4810239D02*
X68311523Y5762620D01*
X67835333Y4810239D02*
X67835333Y6810239D01*
X68597238Y6810239D01*
X68787714Y6715000D01*
X68882952Y6619762D01*
X68978190Y6429286D01*
X68978190Y6143572D01*
X68882952Y5953096D01*
X68787714Y5857858D01*
X68597238Y5762620D01*
X67835333Y5762620D01*
X70692476Y4810239D02*
X70692476Y5857858D01*
X70597238Y6048334D01*
X70406761Y6143572D01*
X70025809Y6143572D01*
X69835333Y6048334D01*
X70692476Y4905477D02*
X70502000Y4810239D01*
X70025809Y4810239D01*
X69835333Y4905477D01*
X69740095Y5095953D01*
X69740095Y5286429D01*
X69835333Y5476905D01*
X70025809Y5572143D01*
X70502000Y5572143D01*
X70692476Y5667381D01*
X71644857Y4810239D02*
X71644857Y6143572D01*
X71644857Y6810239D02*
X71549619Y6715000D01*
X71644857Y6619762D01*
X71740095Y6715000D01*
X71644857Y6810239D01*
X71644857Y6619762D01*
X72882952Y4810239D02*
X72692476Y4905477D01*
X72597238Y5095953D01*
X72597238Y6810239D01*
X74502000Y4905477D02*
X74311523Y4810239D01*
X73930571Y4810239D01*
X73740095Y4905477D01*
X73644857Y5000715D01*
X73549619Y5191191D01*
X73549619Y5762620D01*
X73644857Y5953096D01*
X73740095Y6048334D01*
X73930571Y6143572D01*
X74311523Y6143572D01*
X74502000Y6048334D01*
X75644857Y4810239D02*
X75454380Y4905477D01*
X75359142Y5000715D01*
X75263904Y5191191D01*
X75263904Y5762620D01*
X75359142Y5953096D01*
X75454380Y6048334D01*
X75644857Y6143572D01*
X75930571Y6143572D01*
X76121047Y6048334D01*
X76216285Y5953096D01*
X76311523Y5762620D01*
X76311523Y5191191D01*
X76216285Y5000715D01*
X76121047Y4905477D01*
X75930571Y4810239D01*
X75644857Y4810239D01*
X77168666Y4810239D02*
X77168666Y6143572D01*
X77168666Y5953096D02*
X77263904Y6048334D01*
X77454380Y6143572D01*
X77740095Y6143572D01*
X77930571Y6048334D01*
X78025809Y5857858D01*
X78025809Y4810239D01*
X78025809Y5857858D02*
X78121047Y6048334D01*
X78311523Y6143572D01*
X78597238Y6143572D01*
X78787714Y6048334D01*
X78882952Y5857858D01*
X78882952Y4810239D01*
X81359142Y4810239D02*
X81359142Y6810239D01*
X81835333Y6810239D01*
X82121047Y6715000D01*
X82311523Y6524524D01*
X82406761Y6334048D01*
X82502000Y5953096D01*
X82502000Y5667381D01*
X82406761Y5286429D01*
X82311523Y5095953D01*
X82121047Y4905477D01*
X81835333Y4810239D01*
X81359142Y4810239D01*
X83359142Y4810239D02*
X83359142Y6143572D01*
X83359142Y6810239D02*
X83263904Y6715000D01*
X83359142Y6619762D01*
X83454380Y6715000D01*
X83359142Y6810239D01*
X83359142Y6619762D01*
X84216285Y4905477D02*
X84406761Y4810239D01*
X84787714Y4810239D01*
X84978190Y4905477D01*
X85073428Y5095953D01*
X85073428Y5191191D01*
X84978190Y5381667D01*
X84787714Y5476905D01*
X84502000Y5476905D01*
X84311523Y5572143D01*
X84216285Y5762620D01*
X84216285Y5857858D01*
X84311523Y6048334D01*
X84502000Y6143572D01*
X84787714Y6143572D01*
X84978190Y6048334D01*
X85930571Y6143572D02*
X85930571Y4143572D01*
X85930571Y6048334D02*
X86121047Y6143572D01*
X86502000Y6143572D01*
X86692476Y6048334D01*
X86787714Y5953096D01*
X86882952Y5762620D01*
X86882952Y5191191D01*
X86787714Y5000715D01*
X86692476Y4905477D01*
X86502000Y4810239D01*
X86121047Y4810239D01*
X85930571Y4905477D01*
X88025809Y4810239D02*
X87835333Y4905477D01*
X87740095Y5095953D01*
X87740095Y6810239D01*
X89644857Y4810239D02*
X89644857Y5857858D01*
X89549619Y6048334D01*
X89359142Y6143572D01*
X88978190Y6143572D01*
X88787714Y6048334D01*
X89644857Y4905477D02*
X89454380Y4810239D01*
X88978190Y4810239D01*
X88787714Y4905477D01*
X88692476Y5095953D01*
X88692476Y5286429D01*
X88787714Y5476905D01*
X88978190Y5572143D01*
X89454380Y5572143D01*
X89644857Y5667381D01*
X90406761Y6143572D02*
X90882952Y4810239D01*
X91359142Y6143572D02*
X90882952Y4810239D01*
X90692476Y4334048D01*
X90597238Y4238810D01*
X90406761Y4143572D01*
D10*
X35699428Y12299143D02*
X35913714Y12227715D01*
X35985142Y12156286D01*
X36056571Y12013429D01*
X36056571Y11799143D01*
X35985142Y11656286D01*
X35913714Y11584858D01*
X35770857Y11513429D01*
X35199428Y11513429D01*
X35199428Y13013429D01*
X35699428Y13013429D01*
X35842285Y12942000D01*
X35913714Y12870572D01*
X35985142Y12727715D01*
X35985142Y12584858D01*
X35913714Y12442000D01*
X35842285Y12370572D01*
X35699428Y12299143D01*
X35199428Y12299143D01*
X36985142Y13013429D02*
X37270857Y13013429D01*
X37413714Y12942000D01*
X37556571Y12799143D01*
X37628000Y12513429D01*
X37628000Y12013429D01*
X37556571Y11727715D01*
X37413714Y11584858D01*
X37270857Y11513429D01*
X36985142Y11513429D01*
X36842285Y11584858D01*
X36699428Y11727715D01*
X36628000Y12013429D01*
X36628000Y12513429D01*
X36699428Y12799143D01*
X36842285Y12942000D01*
X36985142Y13013429D01*
X38556571Y13013429D02*
X38842285Y13013429D01*
X38985142Y12942000D01*
X39128000Y12799143D01*
X39199428Y12513429D01*
X39199428Y12013429D01*
X39128000Y11727715D01*
X38985142Y11584858D01*
X38842285Y11513429D01*
X38556571Y11513429D01*
X38413714Y11584858D01*
X38270857Y11727715D01*
X38199428Y12013429D01*
X38199428Y12513429D01*
X38270857Y12799143D01*
X38413714Y12942000D01*
X38556571Y13013429D01*
X39770857Y11584858D02*
X39985142Y11513429D01*
X40342285Y11513429D01*
X40485142Y11584858D01*
X40556571Y11656286D01*
X40628000Y11799143D01*
X40628000Y11942000D01*
X40556571Y12084858D01*
X40485142Y12156286D01*
X40342285Y12227715D01*
X40056571Y12299143D01*
X39913714Y12370572D01*
X39842285Y12442000D01*
X39770857Y12584858D01*
X39770857Y12727715D01*
X39842285Y12870572D01*
X39913714Y12942000D01*
X40056571Y13013429D01*
X40413714Y13013429D01*
X40628000Y12942000D01*
X41056571Y13013429D02*
X41913714Y13013429D01*
X41485142Y11513429D02*
X41485142Y13013429D01*
X42413714Y12299143D02*
X42913714Y12299143D01*
X43128000Y11513429D02*
X42413714Y11513429D01*
X42413714Y13013429D01*
X43128000Y13013429D01*
X44628000Y11513429D02*
X44128000Y12227715D01*
X43770857Y11513429D02*
X43770857Y13013429D01*
X44342285Y13013429D01*
X44485142Y12942000D01*
X44556571Y12870572D01*
X44628000Y12727715D01*
X44628000Y12513429D01*
X44556571Y12370572D01*
X44485142Y12299143D01*
X44342285Y12227715D01*
X43770857Y12227715D01*
X48831642Y11513429D02*
X48331642Y12227715D01*
X47974500Y11513429D02*
X47974500Y13013429D01*
X48545928Y13013429D01*
X48688785Y12942000D01*
X48760214Y12870572D01*
X48831642Y12727715D01*
X48831642Y12513429D01*
X48760214Y12370572D01*
X48688785Y12299143D01*
X48545928Y12227715D01*
X47974500Y12227715D01*
X49403071Y11942000D02*
X50117357Y11942000D01*
X49260214Y11513429D02*
X49760214Y13013429D01*
X50260214Y11513429D01*
X50760214Y11513429D02*
X50760214Y13013429D01*
X52188785Y11513429D02*
X51474500Y11513429D01*
X51474500Y13013429D01*
X8731214Y15295620D02*
X8159785Y15295620D01*
X8445500Y15295620D02*
X8445500Y16295620D01*
X8350261Y16152762D01*
X8255023Y16057524D01*
X8159785Y16009905D01*
X18633333Y41442858D02*
X18585714Y41395239D01*
X18442857Y41347620D01*
X18347619Y41347620D01*
X18204761Y41395239D01*
X18109523Y41490477D01*
X18061904Y41585715D01*
X18014285Y41776191D01*
X18014285Y41919048D01*
X18061904Y42109524D01*
X18109523Y42204762D01*
X18204761Y42300000D01*
X18347619Y42347620D01*
X18442857Y42347620D01*
X18585714Y42300000D01*
X18633333Y42252381D01*
X19585714Y41347620D02*
X19014285Y41347620D01*
X19300000Y41347620D02*
X19300000Y42347620D01*
X19204761Y42204762D01*
X19109523Y42109524D01*
X19014285Y42061905D01*
X68814333Y41915858D02*
X68766714Y41868239D01*
X68623857Y41820620D01*
X68528619Y41820620D01*
X68385761Y41868239D01*
X68290523Y41963477D01*
X68242904Y42058715D01*
X68195285Y42249191D01*
X68195285Y42392048D01*
X68242904Y42582524D01*
X68290523Y42677762D01*
X68385761Y42773000D01*
X68528619Y42820620D01*
X68623857Y42820620D01*
X68766714Y42773000D01*
X68814333Y42725381D01*
X69195285Y42725381D02*
X69242904Y42773000D01*
X69338142Y42820620D01*
X69576238Y42820620D01*
X69671476Y42773000D01*
X69719095Y42725381D01*
X69766714Y42630143D01*
X69766714Y42534905D01*
X69719095Y42392048D01*
X69147666Y41820620D01*
X69766714Y41820620D01*
X34230333Y33042858D02*
X34182714Y32995239D01*
X34039857Y32947620D01*
X33944619Y32947620D01*
X33801761Y32995239D01*
X33706523Y33090477D01*
X33658904Y33185715D01*
X33611285Y33376191D01*
X33611285Y33519048D01*
X33658904Y33709524D01*
X33706523Y33804762D01*
X33801761Y33900000D01*
X33944619Y33947620D01*
X34039857Y33947620D01*
X34182714Y33900000D01*
X34230333Y33852381D01*
X35135095Y33947620D02*
X34658904Y33947620D01*
X34611285Y33471429D01*
X34658904Y33519048D01*
X34754142Y33566667D01*
X34992238Y33566667D01*
X35087476Y33519048D01*
X35135095Y33471429D01*
X35182714Y33376191D01*
X35182714Y33138096D01*
X35135095Y33042858D01*
X35087476Y32995239D01*
X34992238Y32947620D01*
X34754142Y32947620D01*
X34658904Y32995239D01*
X34611285Y33042858D01*
X61823809Y45647620D02*
X61823809Y46647620D01*
X62871428Y45742858D02*
X62823809Y45695239D01*
X62680952Y45647620D01*
X62585714Y45647620D01*
X62442857Y45695239D01*
X62347619Y45790477D01*
X62300000Y45885715D01*
X62252380Y46076191D01*
X62252380Y46219048D01*
X62300000Y46409524D01*
X62347619Y46504762D01*
X62442857Y46600000D01*
X62585714Y46647620D01*
X62680952Y46647620D01*
X62823809Y46600000D01*
X62871428Y46552381D01*
X63252380Y46552381D02*
X63300000Y46600000D01*
X63395238Y46647620D01*
X63633333Y46647620D01*
X63728571Y46600000D01*
X63776190Y46552381D01*
X63823809Y46457143D01*
X63823809Y46361905D01*
X63776190Y46219048D01*
X63204761Y45647620D01*
X63823809Y45647620D01*
X39539666Y5647620D02*
X39539666Y4933334D01*
X39492047Y4790477D01*
X39396809Y4695239D01*
X39253952Y4647620D01*
X39158714Y4647620D01*
X40539666Y4647620D02*
X39968238Y4647620D01*
X40253952Y4647620D02*
X40253952Y5647620D01*
X40158714Y5504762D01*
X40063476Y5409524D01*
X39968238Y5361905D01*
X49666666Y5647620D02*
X49666666Y4933334D01*
X49619047Y4790477D01*
X49523809Y4695239D01*
X49380952Y4647620D01*
X49285714Y4647620D01*
X50095238Y5552381D02*
X50142857Y5600000D01*
X50238095Y5647620D01*
X50476190Y5647620D01*
X50571428Y5600000D01*
X50619047Y5552381D01*
X50666666Y5457143D01*
X50666666Y5361905D01*
X50619047Y5219048D01*
X50047619Y4647620D01*
X50666666Y4647620D01*
X9315761Y6447620D02*
X8982428Y6923810D01*
X8744333Y6447620D02*
X8744333Y7447620D01*
X9125285Y7447620D01*
X9220523Y7400000D01*
X9268142Y7352381D01*
X9315761Y7257143D01*
X9315761Y7114286D01*
X9268142Y7019048D01*
X9220523Y6971429D01*
X9125285Y6923810D01*
X8744333Y6923810D01*
X9601476Y7447620D02*
X9934809Y6447620D01*
X10268142Y7447620D01*
X11125285Y6447620D02*
X10553857Y6447620D01*
X10839571Y6447620D02*
X10839571Y7447620D01*
X10744333Y7304762D01*
X10649095Y7209524D01*
X10553857Y7161905D01*
X26106809Y35423810D02*
X26106809Y34947620D01*
X25773476Y35947620D02*
X26106809Y35423810D01*
X26440142Y35947620D01*
X27297285Y34947620D02*
X26725857Y34947620D01*
X27011571Y34947620D02*
X27011571Y35947620D01*
X26916333Y35804762D01*
X26821095Y35709524D01*
X26725857Y35661905D01*
X22423809Y45547620D02*
X22423809Y46547620D01*
X23471428Y45642858D02*
X23423809Y45595239D01*
X23280952Y45547620D01*
X23185714Y45547620D01*
X23042857Y45595239D01*
X22947619Y45690477D01*
X22900000Y45785715D01*
X22852380Y45976191D01*
X22852380Y46119048D01*
X22900000Y46309524D01*
X22947619Y46404762D01*
X23042857Y46500000D01*
X23185714Y46547620D01*
X23280952Y46547620D01*
X23423809Y46500000D01*
X23471428Y46452381D01*
X24423809Y45547620D02*
X23852380Y45547620D01*
X24138095Y45547620D02*
X24138095Y46547620D01*
X24042857Y46404762D01*
X23947619Y46309524D01*
X23852380Y46261905D01*
X54452380Y43761905D02*
X53452380Y43761905D01*
X53452380Y44000000D01*
X53500000Y44142858D01*
X53595238Y44238096D01*
X53690476Y44285715D01*
X53880952Y44333334D01*
X54023809Y44333334D01*
X54214285Y44285715D01*
X54309523Y44238096D01*
X54404761Y44142858D01*
X54452380Y44000000D01*
X54452380Y43761905D01*
X53452380Y44666667D02*
X53452380Y45285715D01*
X53833333Y44952381D01*
X53833333Y45095239D01*
X53880952Y45190477D01*
X53928571Y45238096D01*
X54023809Y45285715D01*
X54261904Y45285715D01*
X54357142Y45238096D01*
X54404761Y45190477D01*
X54452380Y45095239D01*
X54452380Y44809524D01*
X54404761Y44714286D01*
X54357142Y44666667D01*
X57033333Y40342858D02*
X56985714Y40295239D01*
X56842857Y40247620D01*
X56747619Y40247620D01*
X56604761Y40295239D01*
X56509523Y40390477D01*
X56461904Y40485715D01*
X56414285Y40676191D01*
X56414285Y40819048D01*
X56461904Y41009524D01*
X56509523Y41104762D01*
X56604761Y41200000D01*
X56747619Y41247620D01*
X56842857Y41247620D01*
X56985714Y41200000D01*
X57033333Y41152381D01*
X57604761Y40819048D02*
X57509523Y40866667D01*
X57461904Y40914286D01*
X57414285Y41009524D01*
X57414285Y41057143D01*
X57461904Y41152381D01*
X57509523Y41200000D01*
X57604761Y41247620D01*
X57795238Y41247620D01*
X57890476Y41200000D01*
X57938095Y41152381D01*
X57985714Y41057143D01*
X57985714Y41009524D01*
X57938095Y40914286D01*
X57890476Y40866667D01*
X57795238Y40819048D01*
X57604761Y40819048D01*
X57509523Y40771429D01*
X57461904Y40723810D01*
X57414285Y40628572D01*
X57414285Y40438096D01*
X57461904Y40342858D01*
X57509523Y40295239D01*
X57604761Y40247620D01*
X57795238Y40247620D01*
X57890476Y40295239D01*
X57938095Y40342858D01*
X57985714Y40438096D01*
X57985714Y40628572D01*
X57938095Y40723810D01*
X57890476Y40771429D01*
X57795238Y40819048D01*
X60133333Y8642858D02*
X60085714Y8595239D01*
X59942857Y8547620D01*
X59847619Y8547620D01*
X59704761Y8595239D01*
X59609523Y8690477D01*
X59561904Y8785715D01*
X59514285Y8976191D01*
X59514285Y9119048D01*
X59561904Y9309524D01*
X59609523Y9404762D01*
X59704761Y9500000D01*
X59847619Y9547620D01*
X59942857Y9547620D01*
X60085714Y9500000D01*
X60133333Y9452381D01*
X60990476Y9214286D02*
X60990476Y8547620D01*
X60752380Y9595239D02*
X60514285Y8880953D01*
X61133333Y8880953D01*
X18649333Y33152858D02*
X18601714Y33105239D01*
X18458857Y33057620D01*
X18363619Y33057620D01*
X18220761Y33105239D01*
X18125523Y33200477D01*
X18077904Y33295715D01*
X18030285Y33486191D01*
X18030285Y33629048D01*
X18077904Y33819524D01*
X18125523Y33914762D01*
X18220761Y34010000D01*
X18363619Y34057620D01*
X18458857Y34057620D01*
X18601714Y34010000D01*
X18649333Y33962381D01*
X19506476Y34057620D02*
X19316000Y34057620D01*
X19220761Y34010000D01*
X19173142Y33962381D01*
X19077904Y33819524D01*
X19030285Y33629048D01*
X19030285Y33248096D01*
X19077904Y33152858D01*
X19125523Y33105239D01*
X19220761Y33057620D01*
X19411238Y33057620D01*
X19506476Y33105239D01*
X19554095Y33152858D01*
X19601714Y33248096D01*
X19601714Y33486191D01*
X19554095Y33581429D01*
X19506476Y33629048D01*
X19411238Y33676667D01*
X19220761Y33676667D01*
X19125523Y33629048D01*
X19077904Y33581429D01*
X19030285Y33486191D01*
X41252380Y24961905D02*
X40252380Y24961905D01*
X40252380Y25200000D01*
X40300000Y25342858D01*
X40395238Y25438096D01*
X40490476Y25485715D01*
X40680952Y25533334D01*
X40823809Y25533334D01*
X41014285Y25485715D01*
X41109523Y25438096D01*
X41204761Y25342858D01*
X41252380Y25200000D01*
X41252380Y24961905D01*
X40347619Y25914286D02*
X40300000Y25961905D01*
X40252380Y26057143D01*
X40252380Y26295239D01*
X40300000Y26390477D01*
X40347619Y26438096D01*
X40442857Y26485715D01*
X40538095Y26485715D01*
X40680952Y26438096D01*
X41252380Y25866667D01*
X41252380Y26485715D01*
X66508333Y54047620D02*
X66175000Y54523810D01*
X65936904Y54047620D02*
X65936904Y55047620D01*
X66317857Y55047620D01*
X66413095Y55000000D01*
X66460714Y54952381D01*
X66508333Y54857143D01*
X66508333Y54714286D01*
X66460714Y54619048D01*
X66413095Y54571429D01*
X66317857Y54523810D01*
X65936904Y54523810D01*
X67460714Y54047620D02*
X66889285Y54047620D01*
X67175000Y54047620D02*
X67175000Y55047620D01*
X67079761Y54904762D01*
X66984523Y54809524D01*
X66889285Y54761905D01*
X75752380Y33133334D02*
X75276190Y32800000D01*
X75752380Y32561905D02*
X74752380Y32561905D01*
X74752380Y32942858D01*
X74800000Y33038096D01*
X74847619Y33085715D01*
X74942857Y33133334D01*
X75085714Y33133334D01*
X75180952Y33085715D01*
X75228571Y33038096D01*
X75276190Y32942858D01*
X75276190Y32561905D01*
X74752380Y33466667D02*
X74752380Y34085715D01*
X75133333Y33752381D01*
X75133333Y33895239D01*
X75180952Y33990477D01*
X75228571Y34038096D01*
X75323809Y34085715D01*
X75561904Y34085715D01*
X75657142Y34038096D01*
X75704761Y33990477D01*
X75752380Y33895239D01*
X75752380Y33609524D01*
X75704761Y33514286D01*
X75657142Y33466667D01*
X70752380Y33133334D02*
X70276190Y32800000D01*
X70752380Y32561905D02*
X69752380Y32561905D01*
X69752380Y32942858D01*
X69800000Y33038096D01*
X69847619Y33085715D01*
X69942857Y33133334D01*
X70085714Y33133334D01*
X70180952Y33085715D01*
X70228571Y33038096D01*
X70276190Y32942858D01*
X70276190Y32561905D01*
X70085714Y33990477D02*
X70752380Y33990477D01*
X69704761Y33752381D02*
X70419047Y33514286D01*
X70419047Y34133334D01*
X49652380Y25533334D02*
X49176190Y25200000D01*
X49652380Y24961905D02*
X48652380Y24961905D01*
X48652380Y25342858D01*
X48700000Y25438096D01*
X48747619Y25485715D01*
X48842857Y25533334D01*
X48985714Y25533334D01*
X49080952Y25485715D01*
X49128571Y25438096D01*
X49176190Y25342858D01*
X49176190Y24961905D01*
X48652380Y26438096D02*
X48652380Y25961905D01*
X49128571Y25914286D01*
X49080952Y25961905D01*
X49033333Y26057143D01*
X49033333Y26295239D01*
X49080952Y26390477D01*
X49128571Y26438096D01*
X49223809Y26485715D01*
X49461904Y26485715D01*
X49557142Y26438096D01*
X49604761Y26390477D01*
X49652380Y26295239D01*
X49652380Y26057143D01*
X49604761Y25961905D01*
X49557142Y25914286D01*
X44052380Y25533334D02*
X43576190Y25200000D01*
X44052380Y24961905D02*
X43052380Y24961905D01*
X43052380Y25342858D01*
X43100000Y25438096D01*
X43147619Y25485715D01*
X43242857Y25533334D01*
X43385714Y25533334D01*
X43480952Y25485715D01*
X43528571Y25438096D01*
X43576190Y25342858D01*
X43576190Y24961905D01*
X43052380Y26390477D02*
X43052380Y26200000D01*
X43100000Y26104762D01*
X43147619Y26057143D01*
X43290476Y25961905D01*
X43480952Y25914286D01*
X43861904Y25914286D01*
X43957142Y25961905D01*
X44004761Y26009524D01*
X44052380Y26104762D01*
X44052380Y26295239D01*
X44004761Y26390477D01*
X43957142Y26438096D01*
X43861904Y26485715D01*
X43623809Y26485715D01*
X43528571Y26438096D01*
X43480952Y26390477D01*
X43433333Y26295239D01*
X43433333Y26104762D01*
X43480952Y26009524D01*
X43528571Y25961905D01*
X43623809Y25914286D01*
X63052380Y33133334D02*
X62576190Y32800000D01*
X63052380Y32561905D02*
X62052380Y32561905D01*
X62052380Y32942858D01*
X62100000Y33038096D01*
X62147619Y33085715D01*
X62242857Y33133334D01*
X62385714Y33133334D01*
X62480952Y33085715D01*
X62528571Y33038096D01*
X62576190Y32942858D01*
X62576190Y32561905D01*
X62480952Y33704762D02*
X62433333Y33609524D01*
X62385714Y33561905D01*
X62290476Y33514286D01*
X62242857Y33514286D01*
X62147619Y33561905D01*
X62100000Y33609524D01*
X62052380Y33704762D01*
X62052380Y33895239D01*
X62100000Y33990477D01*
X62147619Y34038096D01*
X62242857Y34085715D01*
X62290476Y34085715D01*
X62385714Y34038096D01*
X62433333Y33990477D01*
X62480952Y33895239D01*
X62480952Y33704762D01*
X62528571Y33609524D01*
X62576190Y33561905D01*
X62671428Y33514286D01*
X62861904Y33514286D01*
X62957142Y33561905D01*
X63004761Y33609524D01*
X63052380Y33704762D01*
X63052380Y33895239D01*
X63004761Y33990477D01*
X62957142Y34038096D01*
X62861904Y34085715D01*
X62671428Y34085715D01*
X62576190Y34038096D01*
X62528571Y33990477D01*
X62480952Y33895239D01*
X71207333Y51247620D02*
X70874000Y51723810D01*
X70635904Y51247620D02*
X70635904Y52247620D01*
X71016857Y52247620D01*
X71112095Y52200000D01*
X71159714Y52152381D01*
X71207333Y52057143D01*
X71207333Y51914286D01*
X71159714Y51819048D01*
X71112095Y51771429D01*
X71016857Y51723810D01*
X70635904Y51723810D01*
X71683523Y51247620D02*
X71874000Y51247620D01*
X71969238Y51295239D01*
X72016857Y51342858D01*
X72112095Y51485715D01*
X72159714Y51676191D01*
X72159714Y52057143D01*
X72112095Y52152381D01*
X72064476Y52200000D01*
X71969238Y52247620D01*
X71778761Y52247620D01*
X71683523Y52200000D01*
X71635904Y52152381D01*
X71588285Y52057143D01*
X71588285Y51819048D01*
X71635904Y51723810D01*
X71683523Y51676191D01*
X71778761Y51628572D01*
X71969238Y51628572D01*
X72064476Y51676191D01*
X72112095Y51723810D01*
X72159714Y51819048D01*
X73252380Y32657143D02*
X72776190Y32323810D01*
X73252380Y32085715D02*
X72252380Y32085715D01*
X72252380Y32466667D01*
X72300000Y32561905D01*
X72347619Y32609524D01*
X72442857Y32657143D01*
X72585714Y32657143D01*
X72680952Y32609524D01*
X72728571Y32561905D01*
X72776190Y32466667D01*
X72776190Y32085715D01*
X73252380Y33609524D02*
X73252380Y33038096D01*
X73252380Y33323810D02*
X72252380Y33323810D01*
X72395238Y33228572D01*
X72490476Y33133334D01*
X72538095Y33038096D01*
X72252380Y34228572D02*
X72252380Y34323810D01*
X72300000Y34419048D01*
X72347619Y34466667D01*
X72442857Y34514286D01*
X72633333Y34561905D01*
X72871428Y34561905D01*
X73061904Y34514286D01*
X73157142Y34466667D01*
X73204761Y34419048D01*
X73252380Y34323810D01*
X73252380Y34228572D01*
X73204761Y34133334D01*
X73157142Y34085715D01*
X73061904Y34038096D01*
X72871428Y33990477D01*
X72633333Y33990477D01*
X72442857Y34038096D01*
X72347619Y34085715D01*
X72300000Y34133334D01*
X72252380Y34228572D01*
X65652380Y32657143D02*
X65176190Y32323810D01*
X65652380Y32085715D02*
X64652380Y32085715D01*
X64652380Y32466667D01*
X64700000Y32561905D01*
X64747619Y32609524D01*
X64842857Y32657143D01*
X64985714Y32657143D01*
X65080952Y32609524D01*
X65128571Y32561905D01*
X65176190Y32466667D01*
X65176190Y32085715D01*
X65652380Y33609524D02*
X65652380Y33038096D01*
X65652380Y33323810D02*
X64652380Y33323810D01*
X64795238Y33228572D01*
X64890476Y33133334D01*
X64938095Y33038096D01*
X64747619Y33990477D02*
X64700000Y34038096D01*
X64652380Y34133334D01*
X64652380Y34371429D01*
X64700000Y34466667D01*
X64747619Y34514286D01*
X64842857Y34561905D01*
X64938095Y34561905D01*
X65080952Y34514286D01*
X65652380Y33942858D01*
X65652380Y34561905D01*
X38452380Y25057143D02*
X37976190Y24723810D01*
X38452380Y24485715D02*
X37452380Y24485715D01*
X37452380Y24866667D01*
X37500000Y24961905D01*
X37547619Y25009524D01*
X37642857Y25057143D01*
X37785714Y25057143D01*
X37880952Y25009524D01*
X37928571Y24961905D01*
X37976190Y24866667D01*
X37976190Y24485715D01*
X38452380Y26009524D02*
X38452380Y25438096D01*
X38452380Y25723810D02*
X37452380Y25723810D01*
X37595238Y25628572D01*
X37690476Y25533334D01*
X37738095Y25438096D01*
X37452380Y26342858D02*
X37452380Y26961905D01*
X37833333Y26628572D01*
X37833333Y26771429D01*
X37880952Y26866667D01*
X37928571Y26914286D01*
X38023809Y26961905D01*
X38261904Y26961905D01*
X38357142Y26914286D01*
X38404761Y26866667D01*
X38452380Y26771429D01*
X38452380Y26485715D01*
X38404761Y26390477D01*
X38357142Y26342858D01*
X85118380Y43807143D02*
X84642190Y43473810D01*
X85118380Y43235715D02*
X84118380Y43235715D01*
X84118380Y43616667D01*
X84166000Y43711905D01*
X84213619Y43759524D01*
X84308857Y43807143D01*
X84451714Y43807143D01*
X84546952Y43759524D01*
X84594571Y43711905D01*
X84642190Y43616667D01*
X84642190Y43235715D01*
X85118380Y44759524D02*
X85118380Y44188096D01*
X85118380Y44473810D02*
X84118380Y44473810D01*
X84261238Y44378572D01*
X84356476Y44283334D01*
X84404095Y44188096D01*
X84451714Y45616667D02*
X85118380Y45616667D01*
X84070761Y45378572D02*
X84785047Y45140477D01*
X84785047Y45759524D01*
X68052380Y32657143D02*
X67576190Y32323810D01*
X68052380Y32085715D02*
X67052380Y32085715D01*
X67052380Y32466667D01*
X67100000Y32561905D01*
X67147619Y32609524D01*
X67242857Y32657143D01*
X67385714Y32657143D01*
X67480952Y32609524D01*
X67528571Y32561905D01*
X67576190Y32466667D01*
X67576190Y32085715D01*
X68052380Y33609524D02*
X68052380Y33038096D01*
X68052380Y33323810D02*
X67052380Y33323810D01*
X67195238Y33228572D01*
X67290476Y33133334D01*
X67338095Y33038096D01*
X67052380Y34466667D02*
X67052380Y34276191D01*
X67100000Y34180953D01*
X67147619Y34133334D01*
X67290476Y34038096D01*
X67480952Y33990477D01*
X67861904Y33990477D01*
X67957142Y34038096D01*
X68004761Y34085715D01*
X68052380Y34180953D01*
X68052380Y34371429D01*
X68004761Y34466667D01*
X67957142Y34514286D01*
X67861904Y34561905D01*
X67623809Y34561905D01*
X67528571Y34514286D01*
X67480952Y34466667D01*
X67433333Y34371429D01*
X67433333Y34180953D01*
X67480952Y34085715D01*
X67528571Y34038096D01*
X67623809Y33990477D01*
X55752380Y25533334D02*
X55276190Y25200000D01*
X55752380Y24961905D02*
X54752380Y24961905D01*
X54752380Y25342858D01*
X54800000Y25438096D01*
X54847619Y25485715D01*
X54942857Y25533334D01*
X55085714Y25533334D01*
X55180952Y25485715D01*
X55228571Y25438096D01*
X55276190Y25342858D01*
X55276190Y24961905D01*
X54752380Y25866667D02*
X54752380Y26533334D01*
X55752380Y26104762D01*
X19978809Y8431620D02*
X19978809Y9431620D01*
X21026428Y8526858D02*
X20978809Y8479239D01*
X20835952Y8431620D01*
X20740714Y8431620D01*
X20597857Y8479239D01*
X20502619Y8574477D01*
X20455000Y8669715D01*
X20407380Y8860191D01*
X20407380Y9003048D01*
X20455000Y9193524D01*
X20502619Y9288762D01*
X20597857Y9384000D01*
X20740714Y9431620D01*
X20835952Y9431620D01*
X20978809Y9384000D01*
X21026428Y9336381D01*
X21359761Y9431620D02*
X21978809Y9431620D01*
X21645476Y9050667D01*
X21788333Y9050667D01*
X21883571Y9003048D01*
X21931190Y8955429D01*
X21978809Y8860191D01*
X21978809Y8622096D01*
X21931190Y8526858D01*
X21883571Y8479239D01*
X21788333Y8431620D01*
X21502619Y8431620D01*
X21407380Y8479239D01*
X21359761Y8526858D01*
X82333333Y54147620D02*
X81857142Y54147620D01*
X81857142Y55147620D01*
X83238095Y54242858D02*
X83190476Y54195239D01*
X83047619Y54147620D01*
X82952380Y54147620D01*
X82809523Y54195239D01*
X82714285Y54290477D01*
X82666666Y54385715D01*
X82619047Y54576191D01*
X82619047Y54719048D01*
X82666666Y54909524D01*
X82714285Y55004762D01*
X82809523Y55100000D01*
X82952380Y55147620D01*
X83047619Y55147620D01*
X83190476Y55100000D01*
X83238095Y55052381D01*
X83666666Y54147620D02*
X83666666Y55147620D01*
X83904761Y55147620D01*
X84047619Y55100000D01*
X84142857Y55004762D01*
X84190476Y54909524D01*
X84238095Y54719048D01*
X84238095Y54576191D01*
X84190476Y54385715D01*
X84142857Y54290477D01*
X84047619Y54195239D01*
X83904761Y54147620D01*
X83666666Y54147620D01*
X85190476Y54147620D02*
X84619047Y54147620D01*
X84904761Y54147620D02*
X84904761Y55147620D01*
X84809523Y55004762D01*
X84714285Y54909524D01*
X84619047Y54861905D01*
X52652380Y25057143D02*
X52176190Y24723810D01*
X52652380Y24485715D02*
X51652380Y24485715D01*
X51652380Y24866667D01*
X51700000Y24961905D01*
X51747619Y25009524D01*
X51842857Y25057143D01*
X51985714Y25057143D01*
X52080952Y25009524D01*
X52128571Y24961905D01*
X52176190Y24866667D01*
X52176190Y24485715D01*
X52652380Y26009524D02*
X52652380Y25438096D01*
X52652380Y25723810D02*
X51652380Y25723810D01*
X51795238Y25628572D01*
X51890476Y25533334D01*
X51938095Y25438096D01*
X51652380Y26914286D02*
X51652380Y26438096D01*
X52128571Y26390477D01*
X52080952Y26438096D01*
X52033333Y26533334D01*
X52033333Y26771429D01*
X52080952Y26866667D01*
X52128571Y26914286D01*
X52223809Y26961905D01*
X52461904Y26961905D01*
X52557142Y26914286D01*
X52604761Y26866667D01*
X52652380Y26771429D01*
X52652380Y26533334D01*
X52604761Y26438096D01*
X52557142Y26390477D01*
X30633333Y8542858D02*
X30585714Y8495239D01*
X30442857Y8447620D01*
X30347619Y8447620D01*
X30204761Y8495239D01*
X30109523Y8590477D01*
X30061904Y8685715D01*
X30014285Y8876191D01*
X30014285Y9019048D01*
X30061904Y9209524D01*
X30109523Y9304762D01*
X30204761Y9400000D01*
X30347619Y9447620D01*
X30442857Y9447620D01*
X30585714Y9400000D01*
X30633333Y9352381D01*
X30966666Y9447620D02*
X31585714Y9447620D01*
X31252380Y9066667D01*
X31395238Y9066667D01*
X31490476Y9019048D01*
X31538095Y8971429D01*
X31585714Y8876191D01*
X31585714Y8638096D01*
X31538095Y8542858D01*
X31490476Y8495239D01*
X31395238Y8447620D01*
X31109523Y8447620D01*
X31014285Y8495239D01*
X30966666Y8542858D01*
X83426380Y43807143D02*
X82950190Y43473810D01*
X83426380Y43235715D02*
X82426380Y43235715D01*
X82426380Y43616667D01*
X82474000Y43711905D01*
X82521619Y43759524D01*
X82616857Y43807143D01*
X82759714Y43807143D01*
X82854952Y43759524D01*
X82902571Y43711905D01*
X82950190Y43616667D01*
X82950190Y43235715D01*
X83426380Y44759524D02*
X83426380Y44188096D01*
X83426380Y44473810D02*
X82426380Y44473810D01*
X82569238Y44378572D01*
X82664476Y44283334D01*
X82712095Y44188096D01*
X83426380Y45711905D02*
X83426380Y45140477D01*
X83426380Y45426191D02*
X82426380Y45426191D01*
X82569238Y45330953D01*
X82664476Y45235715D01*
X82712095Y45140477D01*
X46752380Y24961905D02*
X45752380Y24961905D01*
X45752380Y25200000D01*
X45800000Y25342858D01*
X45895238Y25438096D01*
X45990476Y25485715D01*
X46180952Y25533334D01*
X46323809Y25533334D01*
X46514285Y25485715D01*
X46609523Y25438096D01*
X46704761Y25342858D01*
X46752380Y25200000D01*
X46752380Y24961905D01*
X46752380Y26485715D02*
X46752380Y25914286D01*
X46752380Y26200000D02*
X45752380Y26200000D01*
X45895238Y26104762D01*
X45990476Y26009524D01*
X46038095Y25914286D01*
D12*
X19716000Y44436000D02*
X19716000Y45694000D01*
X17876000Y44436000D02*
X17876000Y45694000D01*
X69610000Y45243000D02*
X68352000Y45243000D01*
X69610000Y43403000D02*
X68352000Y43403000D01*
X33768000Y36480000D02*
X35026000Y36480000D01*
X33768000Y34640000D02*
X35026000Y34640000D01*
X61221000Y39310000D02*
X79241000Y39310000D01*
X61221000Y49590000D02*
X61221000Y39310000D01*
X79181000Y41800000D02*
X79181000Y47100000D01*
X79241000Y49590000D02*
X61221000Y49590000D01*
X79181000Y47100000D02*
X61281000Y47100000D01*
X79241000Y39310000D02*
X79241000Y49590000D01*
X61281000Y47100000D02*
X61281000Y45450000D01*
X61281000Y43450000D02*
X61281000Y41800000D01*
X61281000Y41800000D02*
X79181000Y41800000D01*
X61281000Y43450000D02*
G75*
G03*
X61281000Y45450000I0J1000000D01*
G01*
X37673000Y10855000D02*
X38273000Y10855000D01*
X39023000Y9565000D02*
X40733000Y9565000D01*
X37973000Y10255000D02*
X37673000Y10855000D01*
X35263000Y3455000D02*
X44493000Y3455000D01*
X35263000Y9565000D02*
X35263000Y145000D01*
X35263000Y9565000D02*
X36923000Y9565000D01*
X44493000Y9565000D02*
X42833000Y9565000D01*
X44493000Y145000D02*
X44493000Y9565000D01*
X35263000Y145000D02*
X44493000Y145000D01*
X38273000Y10855000D02*
X37973000Y10255000D01*
X45423000Y9565000D02*
X45423000Y145000D01*
X54653000Y145000D02*
X54653000Y9565000D01*
X47833000Y10855000D02*
X48433000Y10855000D01*
X45423000Y3455000D02*
X54653000Y3455000D01*
X49183000Y9565000D02*
X50893000Y9565000D01*
X45423000Y9565000D02*
X47083000Y9565000D01*
X48433000Y10855000D02*
X48133000Y10255000D01*
X54653000Y9565000D02*
X52993000Y9565000D01*
X48133000Y10255000D02*
X47833000Y10855000D01*
X45423000Y145000D02*
X54653000Y145000D01*
X12446000Y8323000D02*
X12446000Y18093000D01*
X7376000Y8323000D02*
X12446000Y8323000D01*
X7376000Y18093000D02*
X12446000Y18093000D01*
X7376000Y8323000D02*
X7376000Y18093000D01*
X29083000Y38260000D02*
X24083000Y38260000D01*
X29083000Y32860000D02*
X24083000Y32860000D01*
X24083000Y38260000D02*
G75*
G03*
X24083000Y32860000I0J-2700000D01*
G01*
X29083000Y32860000D02*
G75*
G03*
X29083000Y38260000I0J2700000D01*
G01*
X21657000Y46973000D02*
X21657000Y45323000D01*
X47177000Y46973000D02*
X21657000Y46973000D01*
X21657000Y43323000D02*
X21657000Y41673000D01*
X21597000Y49463000D02*
X21597000Y39183000D01*
X47237000Y39183000D02*
X47237000Y49463000D01*
X47237000Y49463000D02*
X21597000Y49463000D01*
X21657000Y41673000D02*
X47177000Y41673000D01*
X21597000Y39183000D02*
X47237000Y39183000D01*
X47177000Y41673000D02*
X47177000Y46973000D01*
X21657000Y43323000D02*
G75*
G03*
X21657000Y45323000I0J1000000D01*
G01*
X54968000Y45730000D02*
X52728000Y45730000D01*
X54968000Y42330000D02*
X54968000Y46570000D01*
X52728000Y46570000D02*
X52728000Y42330000D01*
X53848000Y47220000D02*
X53848000Y46570000D01*
X54968000Y46570000D02*
X52728000Y46570000D01*
X52728000Y42330000D02*
X54968000Y42330000D01*
X54968000Y45850000D02*
X52728000Y45850000D01*
X53848000Y41680000D02*
X53848000Y42330000D01*
X54968000Y45970000D02*
X52728000Y45970000D01*
X56230000Y44718000D02*
X56230000Y43460000D01*
X58070000Y44718000D02*
X58070000Y43460000D01*
X59158000Y12122000D02*
X57718000Y12122000D01*
X62778000Y12803000D02*
X61238000Y12803000D01*
X61376000Y10522000D02*
X59020000Y10522000D01*
X62759000Y12523000D02*
X61238000Y12523000D01*
X62748000Y12443000D02*
X61238000Y12443000D01*
X59158000Y10842000D02*
X58545000Y10842000D01*
X60875000Y10322000D02*
X59521000Y10322000D01*
X59158000Y11682000D02*
X57888000Y11682000D01*
X59158000Y11162000D02*
X58227000Y11162000D01*
X62678000Y12122000D02*
X61238000Y12122000D01*
X61851000Y10842000D02*
X61238000Y10842000D01*
X62062000Y11042000D02*
X61238000Y11042000D01*
X59158000Y12683000D02*
X57622000Y12683000D01*
X59158000Y11202000D02*
X58194000Y11202000D01*
X62320000Y11362000D02*
X61238000Y11362000D01*
X62099000Y11082000D02*
X61238000Y11082000D01*
X62774000Y12683000D02*
X61238000Y12683000D01*
X61941000Y10922000D02*
X61238000Y10922000D01*
X62777000Y12763000D02*
X61238000Y12763000D01*
X62653000Y12042000D02*
X61238000Y12042000D01*
X61923000Y15397775D02*
X61423000Y15397775D01*
X59158000Y11402000D02*
X58049000Y11402000D01*
X59158000Y12323000D02*
X57670000Y12323000D01*
X62398000Y11482000D02*
X61238000Y11482000D01*
X62527000Y11722000D02*
X61238000Y11722000D01*
X59158000Y12763000D02*
X57619000Y12763000D01*
X62347000Y11402000D02*
X61238000Y11402000D01*
X62422000Y11522000D02*
X61238000Y11522000D01*
X62734000Y12363000D02*
X61238000Y12363000D01*
X62293000Y11322000D02*
X61238000Y11322000D01*
X62563000Y11802000D02*
X61238000Y11802000D01*
X61752000Y10762000D02*
X58644000Y10762000D01*
X62263000Y11282000D02*
X61238000Y11282000D01*
X59158000Y12483000D02*
X57642000Y12483000D01*
X62546000Y11762000D02*
X61238000Y11762000D01*
X59158000Y12403000D02*
X57655000Y12403000D01*
X62741000Y12403000D02*
X61238000Y12403000D01*
X61673000Y15647775D02*
X61673000Y15147775D01*
X59158000Y11882000D02*
X57800000Y11882000D01*
X62771000Y12643000D02*
X61238000Y12643000D01*
X62024000Y11002000D02*
X61238000Y11002000D01*
X59158000Y12042000D02*
X57743000Y12042000D01*
X59158000Y11602000D02*
X57930000Y11602000D01*
X59158000Y12283000D02*
X57678000Y12283000D01*
X61641000Y10682000D02*
X58755000Y10682000D01*
X59158000Y12803000D02*
X57618000Y12803000D01*
X59158000Y12563000D02*
X57633000Y12563000D01*
X59158000Y12002000D02*
X57756000Y12002000D01*
X59158000Y12363000D02*
X57662000Y12363000D01*
X62626000Y11962000D02*
X61238000Y11962000D01*
X61209000Y10442000D02*
X59187000Y10442000D01*
X59158000Y11362000D02*
X58076000Y11362000D01*
X62466000Y11602000D02*
X61238000Y11602000D01*
X61517000Y10602000D02*
X58879000Y10602000D01*
X59158000Y10922000D02*
X58455000Y10922000D01*
X59158000Y11642000D02*
X57908000Y11642000D01*
X59158000Y11842000D02*
X57816000Y11842000D01*
X59158000Y12203000D02*
X57697000Y12203000D01*
X59158000Y12082000D02*
X57730000Y12082000D01*
X59158000Y11562000D02*
X57951000Y11562000D01*
X61581000Y10642000D02*
X58815000Y10642000D01*
X59158000Y12243000D02*
X57687000Y12243000D01*
X62612000Y11922000D02*
X61238000Y11922000D01*
X59158000Y11962000D02*
X57770000Y11962000D01*
X59158000Y12603000D02*
X57629000Y12603000D01*
X59158000Y10962000D02*
X58413000Y10962000D01*
X60716000Y10282000D02*
X59680000Y10282000D01*
X62718000Y12283000D02*
X61238000Y12283000D01*
X59158000Y11082000D02*
X58297000Y11082000D01*
X60482000Y10242000D02*
X59914000Y10242000D01*
X61296000Y10482000D02*
X59100000Y10482000D01*
X62508000Y11682000D02*
X61238000Y11682000D01*
X62776000Y12723000D02*
X61238000Y12723000D01*
X62726000Y12323000D02*
X61238000Y12323000D01*
X62778000Y12843000D02*
X61238000Y12843000D01*
X59158000Y10882000D02*
X58499000Y10882000D01*
X61803000Y10802000D02*
X58593000Y10802000D01*
X59158000Y12443000D02*
X57648000Y12443000D01*
X62666000Y12082000D02*
X61238000Y12082000D01*
X62373000Y11442000D02*
X61238000Y11442000D01*
X62763000Y12563000D02*
X61238000Y12563000D01*
X62169000Y11162000D02*
X61238000Y11162000D01*
X61698000Y10722000D02*
X58698000Y10722000D01*
X61897000Y10882000D02*
X61238000Y10882000D01*
X62233000Y11242000D02*
X61238000Y11242000D01*
X59158000Y11922000D02*
X57784000Y11922000D01*
X59158000Y12523000D02*
X57637000Y12523000D01*
X61449000Y10562000D02*
X58947000Y10562000D01*
X59158000Y11442000D02*
X58023000Y11442000D01*
X59158000Y11762000D02*
X57850000Y11762000D01*
X59158000Y11482000D02*
X57998000Y11482000D01*
X59158000Y11322000D02*
X58103000Y11322000D01*
X59158000Y11802000D02*
X57833000Y11802000D01*
X59158000Y11722000D02*
X57869000Y11722000D01*
X59158000Y12843000D02*
X57618000Y12843000D01*
X59158000Y11282000D02*
X58133000Y11282000D01*
X62596000Y11882000D02*
X61238000Y11882000D01*
X62754000Y12483000D02*
X61238000Y12483000D01*
X59158000Y11122000D02*
X58261000Y11122000D01*
X61003000Y10362000D02*
X59393000Y10362000D01*
X61983000Y10962000D02*
X61238000Y10962000D01*
X62580000Y11842000D02*
X61238000Y11842000D01*
X59158000Y12723000D02*
X57620000Y12723000D01*
X59158000Y11042000D02*
X58334000Y11042000D01*
X62767000Y12603000D02*
X61238000Y12603000D01*
X62202000Y11202000D02*
X61238000Y11202000D01*
X59158000Y11522000D02*
X57974000Y11522000D01*
X61113000Y10402000D02*
X59283000Y10402000D01*
X59158000Y11242000D02*
X58163000Y11242000D01*
X62640000Y12002000D02*
X61238000Y12002000D01*
X62488000Y11642000D02*
X61238000Y11642000D01*
X62689000Y12163000D02*
X61238000Y12163000D01*
X62699000Y12203000D02*
X61238000Y12203000D01*
X59158000Y11002000D02*
X58372000Y11002000D01*
X62709000Y12243000D02*
X61238000Y12243000D01*
X59158000Y12643000D02*
X57625000Y12643000D01*
X59158000Y12163000D02*
X57707000Y12163000D01*
X62445000Y11562000D02*
X61238000Y11562000D01*
X62135000Y11122000D02*
X61238000Y11122000D01*
X62818000Y12843000D02*
G75*
G03*
X62818000Y12843000I-2620000J0D01*
G01*
X19445000Y34640000D02*
X18187000Y34640000D01*
X19445000Y36480000D02*
X18187000Y36480000D01*
X41887000Y23534000D02*
X41887000Y27774000D01*
X40767000Y28424000D02*
X40767000Y27774000D01*
X41887000Y27774000D02*
X39647000Y27774000D01*
X39647000Y24254000D02*
X41887000Y24254000D01*
X39647000Y27774000D02*
X39647000Y23534000D01*
X39647000Y24374000D02*
X41887000Y24374000D01*
X40767000Y22884000D02*
X40767000Y23534000D01*
X39647000Y24134000D02*
X41887000Y24134000D01*
X39647000Y23534000D02*
X41887000Y23534000D01*
X69945000Y53240000D02*
X63405000Y53240000D01*
X69945000Y55650000D02*
X69945000Y55980000D01*
X63405000Y55980000D02*
X63405000Y55650000D01*
X69945000Y55980000D02*
X63405000Y55980000D01*
X63405000Y53240000D02*
X63405000Y53570000D01*
X69945000Y53570000D02*
X69945000Y53240000D01*
X76681000Y36544000D02*
X76351000Y36544000D01*
X76681000Y30004000D02*
X76681000Y36544000D01*
X73941000Y36544000D02*
X74271000Y36544000D01*
X74271000Y30004000D02*
X73941000Y30004000D01*
X73941000Y30004000D02*
X73941000Y36544000D01*
X76351000Y30004000D02*
X76681000Y30004000D01*
X69191000Y36544000D02*
X68861000Y36544000D01*
X68861000Y30004000D02*
X69191000Y30004000D01*
X71601000Y30004000D02*
X71271000Y30004000D01*
X71601000Y36544000D02*
X71601000Y30004000D01*
X71271000Y36544000D02*
X71601000Y36544000D01*
X68861000Y36544000D02*
X68861000Y30004000D01*
X50519000Y28924000D02*
X50519000Y22384000D01*
X50519000Y22384000D02*
X50189000Y22384000D01*
X47779000Y28924000D02*
X47779000Y22384000D01*
X50189000Y28924000D02*
X50519000Y28924000D01*
X48109000Y28924000D02*
X47779000Y28924000D01*
X47779000Y22384000D02*
X48109000Y22384000D01*
X42521000Y28924000D02*
X42191000Y28924000D01*
X44931000Y22384000D02*
X44601000Y22384000D01*
X42191000Y28924000D02*
X42191000Y22384000D01*
X42191000Y22384000D02*
X42521000Y22384000D01*
X44601000Y28924000D02*
X44931000Y28924000D01*
X44931000Y28924000D02*
X44931000Y22384000D01*
X63651000Y30004000D02*
X63981000Y30004000D01*
X61241000Y36544000D02*
X61571000Y36544000D01*
X63981000Y36544000D02*
X63651000Y36544000D01*
X61571000Y30004000D02*
X61241000Y30004000D01*
X61241000Y30004000D02*
X61241000Y36544000D01*
X63981000Y30004000D02*
X63981000Y36544000D01*
X68104000Y50522000D02*
X68104000Y50192000D01*
X68104000Y52932000D02*
X74644000Y52932000D01*
X74644000Y52932000D02*
X74644000Y52602000D01*
X68104000Y52602000D02*
X68104000Y52932000D01*
X74644000Y50192000D02*
X74644000Y50522000D01*
X68104000Y50192000D02*
X74644000Y50192000D01*
X71731000Y36544000D02*
X71401000Y36544000D01*
X71401000Y36544000D02*
X71401000Y30004000D01*
X74141000Y30004000D02*
X73811000Y30004000D01*
X74141000Y36544000D02*
X74141000Y30004000D01*
X71401000Y30004000D02*
X71731000Y30004000D01*
X73811000Y36544000D02*
X74141000Y36544000D01*
X66521000Y30004000D02*
X66521000Y36544000D01*
X64111000Y30004000D02*
X63781000Y30004000D01*
X66191000Y30004000D02*
X66521000Y30004000D01*
X63781000Y36544000D02*
X64111000Y36544000D01*
X66521000Y36544000D02*
X66191000Y36544000D01*
X63781000Y30004000D02*
X63781000Y36544000D01*
X39343000Y22384000D02*
X39343000Y28924000D01*
X36933000Y22384000D02*
X36603000Y22384000D01*
X36603000Y22384000D02*
X36603000Y28924000D01*
X39013000Y22384000D02*
X39343000Y22384000D01*
X39343000Y28924000D02*
X39013000Y28924000D01*
X36603000Y28924000D02*
X36933000Y28924000D01*
X80926000Y41180000D02*
X81256000Y41180000D01*
X81256000Y47720000D02*
X80926000Y47720000D01*
X83336000Y47720000D02*
X83666000Y47720000D01*
X80926000Y47720000D02*
X80926000Y41180000D01*
X83666000Y41180000D02*
X83336000Y41180000D01*
X83666000Y47720000D02*
X83666000Y41180000D01*
X69061000Y36544000D02*
X68731000Y36544000D01*
X66321000Y36544000D02*
X66651000Y36544000D01*
X69061000Y30004000D02*
X69061000Y36544000D01*
X68731000Y30004000D02*
X69061000Y30004000D01*
X66321000Y30004000D02*
X66321000Y36544000D01*
X66651000Y30004000D02*
X66321000Y30004000D01*
X54205000Y28924000D02*
X53875000Y28924000D01*
X56615000Y22384000D02*
X56285000Y22384000D01*
X56615000Y28924000D02*
X56615000Y22384000D01*
X53875000Y22384000D02*
X54205000Y22384000D01*
X56285000Y28924000D02*
X56615000Y28924000D01*
X53875000Y28924000D02*
X53875000Y22384000D01*
X15835000Y16044000D02*
X15835000Y14844000D01*
X15835000Y9884000D02*
X17035000Y9884000D01*
X15835000Y11244000D02*
X15835000Y10044000D01*
X23495000Y28314000D02*
X23495000Y25774000D01*
X26075000Y25774000D02*
X26075000Y16284000D01*
X18234000Y9884000D02*
X19435000Y9884000D01*
X25435000Y9884000D02*
X26075000Y9884000D01*
X26075000Y16044000D02*
X26075000Y14844000D01*
X15835000Y16284000D02*
X26075000Y16284000D01*
X26075000Y11244000D02*
X26075000Y10044000D01*
X20955000Y28314000D02*
X20955000Y25774000D01*
X23035000Y9884000D02*
X24235000Y9884000D01*
X15835000Y13644000D02*
X15835000Y12444000D01*
X26075000Y13644000D02*
X26075000Y12444000D01*
X15835000Y25774000D02*
X26075000Y25774000D01*
X18415000Y28314000D02*
X18415000Y25774000D01*
X15835000Y25774000D02*
X15835000Y16284000D01*
X20635000Y9884000D02*
X21835000Y9884000D01*
X12907000Y26864000D02*
X12907000Y51864000D01*
X9767000Y57504000D02*
X9767000Y21224000D01*
X9777000Y57504000D02*
X10567000Y57504000D01*
X17607280Y32364680D02*
X17607280Y46364000D01*
X85907000Y26864000D02*
X12907000Y26864000D01*
X81607660Y31864000D02*
X18107000Y31864000D01*
X85907000Y51864000D02*
X85907000Y26864000D01*
X18107000Y46864000D02*
X81607000Y46864000D01*
X16407000Y57864000D02*
X19407000Y57864000D01*
X12907000Y51864000D02*
X85907000Y51864000D01*
X90047000Y57504000D02*
X10567000Y57504000D01*
X90047000Y21224000D02*
X90047000Y57504000D01*
X9767000Y21224000D02*
X90047000Y21224000D01*
X82107000Y46364000D02*
X82107000Y32364000D01*
X81607660Y31864360D02*
G75*
G03*
X82108040Y32364680I40J500340D01*
G01*
X17607280Y32364680D02*
G75*
G03*
X18107660Y31864300I500380J0D01*
G01*
X82107000Y46364000D02*
G75*
G03*
X81607000Y46864000I-500000J0D01*
G01*
X18107660Y46865540D02*
G75*
G03*
X17607280Y46365160I0J-500380D01*
G01*
X53567000Y28924000D02*
X53567000Y22384000D01*
X53237000Y28924000D02*
X53567000Y28924000D01*
X53567000Y22384000D02*
X53237000Y22384000D01*
X50827000Y22384000D02*
X51157000Y22384000D01*
X50827000Y28924000D02*
X50827000Y22384000D01*
X51157000Y28924000D02*
X50827000Y28924000D01*
X29694000Y12716000D02*
X28154000Y12716000D01*
X29694000Y11115000D02*
X28699000Y11115000D01*
X29694000Y12156000D02*
X28214000Y12156000D01*
X29694000Y10755000D02*
X29035000Y10755000D01*
X33044000Y11555000D02*
X31774000Y11555000D01*
X33262000Y12196000D02*
X31774000Y12196000D01*
X29694000Y12196000D02*
X28206000Y12196000D01*
X33063000Y11595000D02*
X31774000Y11595000D01*
X29694000Y11755000D02*
X28336000Y11755000D01*
X29694000Y10795000D02*
X28991000Y10795000D01*
X33024000Y11515000D02*
X31774000Y11515000D01*
X33270000Y12236000D02*
X31774000Y12236000D01*
X33132000Y11755000D02*
X31774000Y11755000D01*
X29694000Y11595000D02*
X28405000Y11595000D01*
X31018000Y10115000D02*
X30450000Y10115000D01*
X31745000Y10315000D02*
X29723000Y10315000D01*
X29694000Y12236000D02*
X28198000Y12236000D01*
X29694000Y11955000D02*
X28266000Y11955000D01*
X32829000Y11195000D02*
X31774000Y11195000D01*
X29694000Y11875000D02*
X28292000Y11875000D01*
X29694000Y11315000D02*
X28559000Y11315000D01*
X33310000Y12556000D02*
X31774000Y12556000D01*
X32433000Y10755000D02*
X31774000Y10755000D01*
X29694000Y11475000D02*
X28466000Y11475000D01*
X29694000Y12116000D02*
X28223000Y12116000D01*
X32981000Y11435000D02*
X31774000Y11435000D01*
X33225000Y12036000D02*
X31774000Y12036000D01*
X29694000Y11555000D02*
X28424000Y11555000D01*
X29694000Y12356000D02*
X28178000Y12356000D01*
X29694000Y11395000D02*
X28510000Y11395000D01*
X29694000Y10875000D02*
X28908000Y10875000D01*
X33162000Y11835000D02*
X31774000Y11835000D01*
X32560000Y10875000D02*
X31774000Y10875000D01*
X33277000Y12276000D02*
X31774000Y12276000D01*
X29694000Y11515000D02*
X28444000Y11515000D01*
X32477000Y10795000D02*
X31774000Y10795000D01*
X32209000Y15520775D02*
X32209000Y15020775D01*
X29694000Y11995000D02*
X28254000Y11995000D01*
X33314000Y12676000D02*
X31774000Y12676000D01*
X33312000Y12596000D02*
X31774000Y12596000D01*
X29694000Y10955000D02*
X28833000Y10955000D01*
X29694000Y11435000D02*
X28487000Y11435000D01*
X32459000Y15270775D02*
X31959000Y15270775D01*
X29694000Y10915000D02*
X28870000Y10915000D01*
X33314000Y12716000D02*
X31774000Y12716000D01*
X32883000Y11275000D02*
X31774000Y11275000D01*
X29694000Y12316000D02*
X28184000Y12316000D01*
X33002000Y11475000D02*
X31774000Y11475000D01*
X29694000Y11275000D02*
X28585000Y11275000D01*
X29694000Y11635000D02*
X28386000Y11635000D01*
X33116000Y11715000D02*
X31774000Y11715000D01*
X33099000Y11675000D02*
X31774000Y11675000D01*
X33290000Y12356000D02*
X31774000Y12356000D01*
X29694000Y12036000D02*
X28243000Y12036000D01*
X33307000Y12516000D02*
X31774000Y12516000D01*
X29694000Y11915000D02*
X28279000Y11915000D01*
X32288000Y10635000D02*
X29180000Y10635000D01*
X29694000Y11235000D02*
X28612000Y11235000D01*
X33148000Y11795000D02*
X31774000Y11795000D01*
X33176000Y11875000D02*
X31774000Y11875000D01*
X29694000Y12596000D02*
X28156000Y12596000D01*
X32958000Y11395000D02*
X31774000Y11395000D01*
X29694000Y12076000D02*
X28233000Y12076000D01*
X32909000Y11315000D02*
X31774000Y11315000D01*
X29694000Y12636000D02*
X28155000Y12636000D01*
X29694000Y10835000D02*
X28949000Y10835000D01*
X29694000Y12396000D02*
X28173000Y12396000D01*
X29694000Y11195000D02*
X28639000Y11195000D01*
X32934000Y11355000D02*
X31774000Y11355000D01*
X29694000Y12516000D02*
X28161000Y12516000D01*
X29694000Y12476000D02*
X28165000Y12476000D01*
X32519000Y10835000D02*
X31774000Y10835000D01*
X33299000Y12436000D02*
X31774000Y12436000D01*
X29694000Y12276000D02*
X28191000Y12276000D01*
X33245000Y12116000D02*
X31774000Y12116000D01*
X29694000Y11075000D02*
X28730000Y11075000D01*
X32856000Y11235000D02*
X31774000Y11235000D01*
X33189000Y11915000D02*
X31774000Y11915000D01*
X32339000Y10675000D02*
X29129000Y10675000D01*
X29694000Y10715000D02*
X29081000Y10715000D01*
X33284000Y12316000D02*
X31774000Y12316000D01*
X29694000Y11835000D02*
X28306000Y11835000D01*
X32053000Y10475000D02*
X29415000Y10475000D01*
X31252000Y10155000D02*
X30216000Y10155000D01*
X33082000Y11635000D02*
X31774000Y11635000D01*
X32234000Y10595000D02*
X29234000Y10595000D01*
X33202000Y11955000D02*
X31774000Y11955000D01*
X32769000Y11115000D02*
X31774000Y11115000D01*
X29694000Y11715000D02*
X28352000Y11715000D01*
X32598000Y10915000D02*
X31774000Y10915000D01*
X33313000Y12636000D02*
X31774000Y12636000D01*
X33254000Y12156000D02*
X31774000Y12156000D01*
X29694000Y11035000D02*
X28763000Y11035000D01*
X33295000Y12396000D02*
X31774000Y12396000D01*
X32738000Y11075000D02*
X31774000Y11075000D01*
X32705000Y11035000D02*
X31774000Y11035000D01*
X29694000Y12436000D02*
X28169000Y12436000D01*
X31649000Y10275000D02*
X29819000Y10275000D01*
X33214000Y11995000D02*
X31774000Y11995000D01*
X29694000Y11675000D02*
X28369000Y11675000D01*
X32387000Y10715000D02*
X31774000Y10715000D01*
X31539000Y10235000D02*
X29929000Y10235000D01*
X29694000Y12556000D02*
X28158000Y12556000D01*
X32117000Y10515000D02*
X29351000Y10515000D01*
X29694000Y10995000D02*
X28797000Y10995000D01*
X33235000Y12076000D02*
X31774000Y12076000D01*
X32635000Y10955000D02*
X31774000Y10955000D01*
X29694000Y12676000D02*
X28154000Y12676000D01*
X32177000Y10555000D02*
X29291000Y10555000D01*
X32799000Y11155000D02*
X31774000Y11155000D01*
X29694000Y11355000D02*
X28534000Y11355000D01*
X31411000Y10195000D02*
X30057000Y10195000D01*
X31912000Y10395000D02*
X29556000Y10395000D01*
X31985000Y10435000D02*
X29483000Y10435000D01*
X32671000Y10995000D02*
X31774000Y10995000D01*
X29694000Y11795000D02*
X28320000Y11795000D01*
X33303000Y12476000D02*
X31774000Y12476000D01*
X29694000Y11155000D02*
X28669000Y11155000D01*
X31832000Y10355000D02*
X29636000Y10355000D01*
X33354000Y12716000D02*
G75*
G03*
X33354000Y12716000I-2620000J0D01*
G01*
X86714000Y47720000D02*
X86384000Y47720000D01*
X83974000Y41180000D02*
X83974000Y47720000D01*
X86714000Y41180000D02*
X86714000Y47720000D01*
X84304000Y41180000D02*
X83974000Y41180000D01*
X83974000Y47720000D02*
X84304000Y47720000D01*
X86384000Y41180000D02*
X86714000Y41180000D01*
X47475000Y23534000D02*
X47475000Y27774000D01*
X46355000Y28424000D02*
X46355000Y27774000D01*
X45235000Y27774000D02*
X45235000Y23534000D01*
X47475000Y27054000D02*
X45235000Y27054000D01*
X46355000Y22884000D02*
X46355000Y23534000D01*
X47475000Y27174000D02*
X45235000Y27174000D01*
X47475000Y26934000D02*
X45235000Y26934000D01*
X45235000Y23534000D02*
X47475000Y23534000D01*
X47475000Y27774000D02*
X45235000Y27774000D01*
M02*
